<svg xmlns="http://www.w3.org/2000/svg" width="1400" height="980" viewBox="0 0 1400 980" role="img" aria-label="Demo auto 2">
  <defs>
    <linearGradient id="bg2" x1="0" y1="0" x2="1" y2="1">
      <stop offset="0%" stop-color="#111822"/>
      <stop offset="100%" stop-color="#05070b"/>
    </linearGradient>
    <linearGradient id="car2" x1="0" y1="0" x2="1" y2="0">
      <stop offset="0%" stop-color="#2ea3ff"/>
      <stop offset="100%" stop-color="#0068b5"/>
    </linearGradient>
  </defs>
  <rect width="1400" height="980" fill="url(#bg2)"/>
  <circle cx="1180" cy="180" r="140" fill="#2ea3ff" opacity="0.13"/>
  <circle cx="250" cy="220" r="220" fill="#ffffff" opacity="0.04"/>
  <text x="80" y="120" fill="#ffffff" opacity="0.75" font-family="Arial, sans-serif" font-size="56" font-weight="700">Weingartner Auto - Demo 2</text>
  <g transform="translate(130 372)">
    <path d="M66 210h910c70 0 126 56 126 126v8H0v-20c0-63 51-114 114-114h121l115-125c45-49 108-76 174-76h266c66 0 129 29 174 78l102 123z" fill="url(#car2)"/>
    <rect x="378" y="44" width="312" height="118" rx="20" fill="#121923" opacity="0.9"/>
    <circle cx="250" cy="344" r="84" fill="#0f131a"/>
    <circle cx="250" cy="344" r="44" fill="#a8b0bb"/>
    <circle cx="852" cy="344" r="84" fill="#0f131a"/>
    <circle cx="852" cy="344" r="44" fill="#a8b0bb"/>
  </g>
</svg>
